<svg xmlns="http://www.w3.org/2000/svg" xmlns:xlink="http://www.w3.org/1999/xlink" width="470" height="468" id="language-translator"><defs><filter id="a" width="111.8%" height="111.9%" x="-5.9%" y="-3.9%" filterUnits="objectBoundingBox"><feOffset dy="5" in="SourceAlpha" result="shadowOffsetOuter1"></feOffset><feGaussianBlur in="shadowOffsetOuter1" result="shadowBlurOuter1" stdDeviation="4"></feGaussianBlur><feColorMatrix in="shadowBlurOuter1" result="shadowMatrixOuter1" values="0 0 0 0 0 0 0 0 0 0 0 0 0 0 0 0 0 0 0.078125 0"></feColorMatrix><feOffset dy="4" in="SourceAlpha" result="shadowOffsetOuter2"></feOffset><feGaussianBlur in="shadowOffsetOuter2" result="shadowBlurOuter2" stdDeviation="5.5"></feGaussianBlur><feColorMatrix in="shadowBlurOuter2" result="shadowMatrixOuter2" values="0 0 0 0 0 0 0 0 0 0 0 0 0 0 0 0 0 0 0.210824275 0"></feColorMatrix><feMerge><feMergeNode in="shadowMatrixOuter1"></feMergeNode><feMergeNode in="shadowMatrixOuter2"></feMergeNode></feMerge></filter><path id="b" d="M9.635 132.808C24.782 59.782 71.388 19.109 144.085 6.822c53.74-9.081 107.5-9.196 161.15.255 74.852 13.185 119.85 56.23 134.185 130.36 11.075 57.29 11.249 115.191-.174 172.427-15.324 72.52-63.132 117.285-135.561 129.527-53.74 9.08-107.5 9.195-161.15-.255-74.852-13.186-120.05-58.38-134.384-132.509-11.64-57.668-10.52-115.935 1.484-173.82z"></path></defs><g fill="none" fill-rule="evenodd"><g transform="translate(11 7)"><use fill="#000" filter="url(#a)" xlink:href="#b"></use><use fill="#28C7DA" xlink:href="#b"></use></g><path fill="#FFF" d="m174.029 184.313 8.853-19.032 8.854 19.032h-17.707zm15.82-34.011L217 208.667l-11.456 5.329-7.93-17.047H168.15l-7.616 16.37-11.456-5.328 26.835-57.69 2.225-4.781c1.832-3.94 7.413-3.996 9.324-.093l2.387 4.875zm109.75 99.511h12.636v23.804H327v12.635h-14.765v34.094h-12.636v-70.533zm-37.45 46.752a44.395 44.395 0 0 0 13.774-26.38l.166-1.182h-22.333v-12.636h36.29v12.636l-2.802 11.341a44.398 44.398 0 0 1-13.388 22.344L261.71 313.63l-8.346-11.239 7.581-4.898a8.756 8.756 0 0 0 1.205-.928zm70.972-86.315c20.867 0 37.783 16.916 37.783 37.783v89.027c0 9.623-7.802 17.424-17.425 17.424H219.996c-11.32 0-20.496-9.175-20.496-20.495v-58.815a48.044 48.044 0 0 1 9.962-29.293l36.141-46.993a29.19 29.19 0 0 0 6.051-17.795V123.5H116.5v87.035c0 12.13 9.834 21.965 21.965 21.965H179.5V250h-45.137C114.833 250 99 234.167 99 214.637V123.38c0-9.597 7.782-17.38 17.381-17.38h132.526c11.182 0 20.247 9.065 20.247 20.248v61.333a29.19 29.19 0 0 1-6.026 17.762L226.92 252.56A48.051 48.051 0 0 0 217 281.8v55.184h136.404v-86.102c0-12.776-10.356-23.132-23.132-23.132H293.33v-17.5h39.791z"></path></g></svg>